{
  "title": "Fifty Shades OF Gray 2015 HDCAM XviD AC3 MURD3R",
  "uid": 11705997,
  "size": 959092959,
  "categoryP": "video",
  "categoryS": "movies",
  "magnet": "?xt=urn:btih:06e7662005c0eed9f5564ee5a6b6ef37998194cc&amp;dn=Fifty+Shades+OF+Gray+2015+HDCAM+XviD+AC3+MURD3R&amp;tr=udp%3A%2F%2Ftracker.openbittorrent.com%3A80&amp;tr=udp%3A%2F%2Fopen.demonii.com%3A1337&amp;tr=udp%3A%2F%2Ftracker.coppersurfer.tk%3A6969&amp;tr=udp%3A%2F%2Fexodus.desync.com%3A6969",
  "seeders": 143,
  "leechers": 21,
  "uploader": ".BONE.",
  "files": 9,
  "time": 1424124800,
  "description": "Fifty Shades OF Gray 2015 CAM XviD AC3 MURD3R.avi\n\nFormat : AVI\nFormat/Info : Audio Video Interleave\nFile size : 914 MiB\nDuration : 1h 49mn\nOverall bit rate : 1 161 Kbps\n\nVideo\nID : 0\nFormat : xvid\nCodec ID : xvid\nDuration : 1h 49mn\nBit rate : 958 Kbps\nWidth : 620 pixels\nHeight : 268 pixels\nDisplay aspect ratio : 2.35:1\nFrame rate : 25.000 fps\nBits/(Pixel*Frame) : 0.231\nStream size : 754 MiB (83%)\n\nAudio\nID : 1\nFormat : AC-3\nFormat/Info : Audio Coding 3\nMode extension : CM (complete main)\nFormat settings, Endianness : Big\nCodec ID : 2000\nDuration : 1h 49mn\nBit rate mode : Constant\nBit rate : 192 Kbps\nChannel(s) : 2 channels\nChannel positions : Front: L R\nSampling rate : 44.1 KHz\nBit depth : 16 bits\nCompression mode : Lossy\nStream size : 151 MiB (17%)\nAlignment : Aligned on interleaves\nInterleave, duration : 35 ms (0.87 video frame)\n &lt;a href=&quot;\nhttp://s20.postimage.org/c9xalgzy5/vlcsnap_2015_02_16_20h57m09s126.png&quot; rel=&quot;nofollow&quot; target=&quot;_NEW&quot;&gt;\nhttp://s20.postimage.org/c9xalgzy5/vlcsnap_2015_02_16_20h57m09s126.png&lt;/a&gt; &lt;a href=&quot;\nhttp://s20.postimage.org/k3xw6v7r1/vlcsnap_2015_02_16_20h57m10s140.png&quot; rel=&quot;nofollow&quot; target=&quot;_NEW&quot;&gt;\nhttp://s20.postimage.org/k3xw6v7r1/vlcsnap_2015_02_16_20h57m10s140.png&lt;/a&gt; &lt;a href=&quot;\nhttp://s20.postimage.org/eibh2t725/vlcsnap_2015_02_16_20h57m22s255.png&quot; rel=&quot;nofollow&quot; target=&quot;_NEW&quot;&gt;\nhttp://s20.postimage.org/eibh2t725/vlcsnap_2015_02_16_20h57m22s255.png&lt;/a&gt; &lt;a href=&quot;\nhttp://s20.postimage.org/pw2lrr6yl/vlcsnap_2015_02_16_20h57m15s187.png&quot; rel=&quot;nofollow&quot; target=&quot;_NEW&quot;&gt;\nhttp://s20.postimage.org/pw2lrr6yl/vlcsnap_2015_02_16_20h57m15s187.png&lt;/a&gt;",
  "parsed": {
    "xt": "urn:btih:06e7662005c0eed9f5564ee5a6b6ef37998194cc",
    "dn": "Fifty Shades OF Gray 2015 HDCAM XviD AC3 MURD3R",
    "tr": [
      "udp://exodus.desync.com:6969",
      "udp://open.demonii.com:1337",
      "udp://tracker.coppersurfer.tk:6969",
      "udp://tracker.openbittorrent.com:80"
    ],
    "infoHash": "06e7662005c0eed9f5564ee5a6b6ef37998194cc",
    "infoHashBuffer": {
      "type": "Buffer",
      "data": [
        6,
        231,
        102,
        32,
        5,
        192,
        238,
        217,
        245,
        86,
        78,
        229,
        166,
        182,
        239,
        55,
        153,
        129,
        148,
        204
      ]
    },
    "name": "Fifty Shades OF Gray 2015 HDCAM XviD AC3 MURD3R",
    "announce": [
      "udp://exodus.desync.com:6969",
      "udp://open.demonii.com:1337",
      "udp://tracker.coppersurfer.tk:6969",
      "udp://tracker.openbittorrent.com:80"
    ],
    "urlList": []
  },
  "previous": 164,
  "peers": 29,
  "last_updated": "2016-12-24T16:08:00.667Z"
}